<svg width="213" height="38" viewBox="0 0 213 38" fill="none" xmlns="http://www.w3.org/2000/svg">
<path d="M21.2579 1.46346L25.5607 13.2995L25.6804 13.6287H26.0306H39.7873L28.708 20.8233L28.3745 21.0398L28.5104 21.4135L32.7729 33.1387L21.5302 25.838L21.2579 25.6612L20.9856 25.838L9.74294 33.1387L14.0054 21.4135L14.1413 21.0398L13.8078 20.8233L2.72848 13.6287H16.4852H16.8355L16.9551 13.2995L21.2579 1.46346Z" fill="#D9D9D9" stroke="#FE8D08"/>
<path d="M64.1944 1.46346L68.4972 13.2995L68.6169 13.6287H68.9671H82.7239L71.6445 20.8233L71.3111 21.0398L71.4469 21.4135L75.7094 33.1387L64.4667 25.838L64.1944 25.6612L63.9221 25.838L52.6795 33.1387L56.942 21.4135L57.0778 21.0398L56.7444 20.8233L45.665 13.6287H59.4217H59.772L59.8916 13.2995L64.1944 1.46346Z" fill="#D9D9D9" stroke="#FE8D08"/>
<path d="M106.71 1.46346L111.013 13.2995L111.133 13.6287H111.483H125.239L114.16 20.8233L113.827 21.0398L113.963 21.4135L118.225 33.1387L106.982 25.838L106.71 25.6612L106.438 25.838L95.1951 33.1387L99.4576 21.4135L99.5934 21.0398L99.26 20.8233L88.1806 13.6287H101.937H102.288L102.407 13.2995L106.71 1.46346Z" fill="#D9D9D9" stroke="#FE8D08"/>
<path d="M149.227 1.46346L153.529 13.2995L153.649 13.6287H153.999H167.756L156.677 20.8233L156.343 21.0398L156.479 21.4135L160.742 33.1387L149.499 25.838L149.227 25.6612L148.954 25.838L137.712 33.1387L141.974 21.4135L142.11 21.0398L141.777 20.8233L130.697 13.6287H144.454H144.804L144.924 13.2995L149.227 1.46346Z" fill="#D9D9D9" stroke="#FE8D08"/>
<path d="M191.742 1.46346L196.045 13.2995L196.165 13.6287H196.515H210.272L199.192 20.8233L198.859 21.0398L198.995 21.4135L203.257 33.1387L192.015 25.838L191.742 25.6612L191.47 25.838L180.227 33.1387L184.49 21.4135L184.626 21.0398L184.292 20.8233L173.213 13.6287H186.97H187.32L187.439 13.2995L191.742 1.46346Z" fill="#D9D9D9" stroke="#FE8D08"/>
</svg>
