<svg width="34" height="33" viewBox="0 0 34 33" fill="none" xmlns="http://www.w3.org/2000/svg">
<path d="M34 1.90385V24.1154C34 24.7764 33.7491 25.3648 33.2474 25.8804C32.7457 26.396 32.1111 26.796 31.3438 27.0802C30.5764 27.3645 29.8127 27.576 29.0527 27.7148C28.2928 27.8537 27.5807 27.9231 26.9167 27.9231C26.2526 27.9231 25.5406 27.8537 24.7806 27.7148C24.0206 27.576 23.2569 27.3645 22.4896 27.0802C21.7222 26.796 21.0877 26.396 20.5859 25.8804C20.0842 25.3648 19.8333 24.7764 19.8333 24.1154C19.8333 23.4543 20.0842 22.866 20.5859 22.3504C21.0877 21.8347 21.7222 21.4348 22.4896 21.1505C23.2569 20.8663 24.0206 20.6547 24.7806 20.5159C25.5406 20.3771 26.2526 20.3077 26.9167 20.3077C28.4661 20.3077 29.8828 20.5655 31.1667 21.0811V10.4315L14.1667 15.1316V29.1923C14.1667 29.8534 13.9158 30.4417 13.4141 30.9573C12.9123 31.473 12.2778 31.8729 11.5104 32.1572C10.7431 32.4414 9.97938 32.6529 9.2194 32.7918C8.45942 32.9306 7.7474 33 7.08333 33C6.41927 33 5.70725 32.9306 4.94727 32.7918C4.18728 32.6529 3.42361 32.4414 2.65625 32.1572C1.88889 31.8729 1.25434 31.473 0.752604 30.9573C0.250868 30.4417 0 29.8534 0 29.1923C0 28.5312 0.250868 27.9429 0.752604 27.4273C1.25434 26.9117 1.88889 26.5117 2.65625 26.2275C3.42361 25.9432 4.18728 25.7317 4.94727 25.5928C5.70725 25.454 6.41927 25.3846 7.08333 25.3846C8.63281 25.3846 10.0495 25.6424 11.3333 26.1581V6.98077C11.3333 6.57091 11.4735 6.19742 11.7539 5.86028C12.0343 5.52314 12.3958 5.28846 12.8385 5.15625L31.2552 0.0793269C31.4323 0.0264423 31.6389 0 31.875 0C32.4653 0 32.967 0.185096 33.3802 0.555288C33.7934 0.925481 34 1.375 34 1.90385Z" fill="black" fill-opacity="0.4"/>
</svg>
