<svg width="48" height="34" viewBox="0 0 48 34" fill="none" xmlns="http://www.w3.org/2000/svg">
<path d="M12.9017 4.6819C12.5036 4.68262 12.1062 4.70371 11.7124 4.74499C8.54064 5.07722 5.89783 6.68352 4.18698 9.1205C2.47604 11.5575 1.74873 14.8026 2.47267 18.2385C3.1967 21.6744 5.23061 24.6301 7.87248 26.6111C10.5144 28.5921 13.7052 29.5874 16.8771 29.2551C20.0488 28.9228 22.6917 27.3164 24.4027 24.8794C24.8024 24.3101 25.1478 23.6961 25.4341 23.0465C22.7001 23.0511 19.9184 22.8756 16.8016 21.4337C21.3465 20.4801 24.5223 18.2135 26.2634 16.6363C26.2207 16.086 26.2355 16.3248 26.1167 15.7615C25.3928 12.3256 23.359 9.36972 20.7172 7.38876C18.4055 5.65535 15.6734 4.67686 12.9017 4.6819ZM44.9642 12.6793C44.7979 12.676 44.6083 12.6994 44.397 12.7553C38.6705 14.272 35.5625 17.3862 32.8436 19.9249C30.8949 20.1176 29.0974 20.1516 25.8241 22.0261C25.0894 22.4469 31.0267 25.5414 34.7425 20.2418C35.6656 18.9253 36.7602 17.4678 44.5919 14.603C46.1581 14.0301 46.1283 12.7025 44.9641 12.6793H44.9642ZM23.4054 13.1332L24.6363 13.9506C23.0058 15.1826 20.1832 15.5318 17.931 15.3726L18.0985 14.1832C19.9104 14.3112 22.4007 13.8922 23.4054 13.1332ZM32.3756 17.5904C31.8504 17.5834 31.1864 18.054 30.5933 18.0905C29.5874 18.1524 28.4462 17.5301 27.577 17.894C27.0062 18.133 27.2495 18.8526 26.7816 19.1853C26.1402 19.6414 24.6036 19.3612 24.2868 19.9646C24.0639 20.3892 25.1099 21.1923 25.1099 21.1923C26.4625 20.2326 28.2369 18.9274 32.4843 19.0261C32.4843 19.0261 33.1962 17.9779 32.7145 17.6827C32.6107 17.619 32.4969 17.5919 32.3756 17.5904ZM13.1306 19.1194L14.066 20.1143C12.8099 20.7663 11.7685 21.562 12.5088 22.5938C13.0464 23.1578 13.8651 23.8253 14.9114 23.8329L14.9398 25.0279C13.2389 24.9469 11.7315 24.0966 11.0126 23.1467C9.93104 21.348 11.2721 20.0134 13.1307 19.1194H13.1306Z" fill="black" fill-opacity="0.42"/>
</svg>
