<svg width="34" height="32" viewBox="0 0 34 32" fill="none" xmlns="http://www.w3.org/2000/svg">
<path d="M6.5 0C5.1325 0 4 1.1325 4 2.5C4 3.8675 5.1325 5 6.5 5C7.8675 5 9 3.8675 9 2.5C9 1.1325 7.8675 0 6.5 0ZM11.5 1.25C10.8125 1.25 10.25 1.8125 10.25 2.5C10.25 3.1875 10.8125 3.75 11.5 3.75C12.1875 3.75 12.75 3.1875 12.75 2.5C12.75 1.8125 12.1875 1.25 11.5 1.25ZM15.25 1.25C14.5625 1.25 14 1.8125 14 2.5C14 3.1875 14.5625 3.75 15.25 3.75C15.9375 3.75 16.5 3.1875 16.5 2.5C16.5 1.8125 15.9375 1.25 15.25 1.25ZM19 1.25C18.3125 1.25 17.75 1.8125 17.75 2.5C17.75 3.1875 18.3125 3.75 19 3.75C19.6875 3.75 20.25 3.1875 20.25 2.5C20.25 1.8125 19.6875 1.25 19 1.25ZM22.75 1.25C22.0625 1.25 21.5 1.8125 21.5 2.5C21.5 3.1875 22.0625 3.75 22.75 3.75C23.4375 3.75 24 3.1875 24 2.5C24 1.8125 23.4375 1.25 22.75 1.25ZM26.5 1.25C25.8125 1.25 25.25 1.8125 25.25 2.5C25.25 3.1875 25.8125 3.75 26.5 3.75C27.1875 3.75 27.75 3.1875 27.75 2.5C27.75 1.8125 27.1875 1.25 26.5 1.25ZM30.25 1.25C29.5625 1.25 29 1.8125 29 2.5C29 3.1875 29.5625 3.75 30.25 3.75C30.9375 3.75 31.5 3.1875 31.5 2.5C31.5 1.8125 30.9375 1.25 30.25 1.25ZM32.75 3.75C32.0625 3.75 31.5 4.3125 31.5 5C31.5 5.6875 32.0625 6.25 32.75 6.25C33.4375 6.25 34 5.6875 34 5C34 4.3125 33.4375 3.75 32.75 3.75ZM19 7.5C16.935 7.5 15.25 9.185 15.25 11.25C15.25 12.8125 17.2662 16.865 17.8875 18.0713L19 20.2337L20.1125 18.0713C20.735 16.865 22.75 12.8125 22.75 11.25C22.75 9.185 21.065 7.5 19 7.5ZM32.75 7.5C32.0625 7.5 31.5 8.0625 31.5 8.75C31.5 9.4375 32.0625 10 32.75 10C33.4375 10 34 9.4375 34 8.75C34 8.0625 33.4375 7.5 32.75 7.5ZM19 10C19.6875 10 20.25 10.5625 20.25 11.25C20.25 11.9375 19.6875 12.5 19 12.5C18.3125 12.5 17.75 11.9375 17.75 11.25C17.75 10.5625 18.3125 10 19 10ZM32.75 11.25C32.0625 11.25 31.5 11.8125 31.5 12.5C31.5 13.1875 32.0625 13.75 32.75 13.75C33.4375 13.75 34 13.1875 34 12.5C34 11.8125 33.4375 11.25 32.75 11.25ZM32.75 15C32.0625 15 31.5 15.5625 31.5 16.25C31.5 16.9375 32.0625 17.5 32.75 17.5C33.4375 17.5 34 16.9375 34 16.25C34 15.5625 33.4375 15 32.75 15ZM7.75 17.5C7.0625 17.5 6.5 18.0625 6.5 18.75C6.5 19.4375 7.0625 20 7.75 20C8.4375 20 9 19.4375 9 18.75C9 18.0625 8.4375 17.5 7.75 17.5ZM11.5 17.5C10.8125 17.5 10.25 18.0625 10.25 18.75C10.25 19.4375 10.8125 20 11.5 20C12.1875 20 12.75 19.4375 12.75 18.75C12.75 18.0625 12.1875 17.5 11.5 17.5ZM15.25 17.5C14.5625 17.5 14 18.0625 14 18.75C14 19.4375 14.5625 20 15.25 20C15.9375 20 16.5 19.4375 16.5 18.75C16.5 18.0625 15.9375 17.5 15.25 17.5ZM22.75 17.5C22.0625 17.5 21.5 18.0625 21.5 18.75C21.5 19.4375 22.0625 20 22.75 20C23.4375 20 24 19.4375 24 18.75C24 18.0625 23.4375 17.5 22.75 17.5ZM26.5 17.5C25.8125 17.5 25.25 18.0625 25.25 18.75C25.25 19.4375 25.8125 20 26.5 20C27.1875 20 27.75 19.4375 27.75 18.75C27.75 18.0625 27.1875 17.5 26.5 17.5ZM30.25 17.5C29.5625 17.5 29 18.0625 29 18.75C29 19.4375 29.5625 20 30.25 20C30.9375 20 31.5 19.4375 31.5 18.75C31.5 18.0625 30.9375 17.5 30.25 17.5ZM5.25 20C4.5625 20 4 20.5625 4 21.25C4 21.9375 4.5625 22.5 5.25 22.5C5.9375 22.5 6.5 21.9375 6.5 21.25C6.5 20.5625 5.9375 20 5.25 20ZM5.25 23.75C4.5625 23.75 4 24.3125 4 25C4 25.6875 4.5625 26.25 5.25 26.25C5.9375 26.25 6.5 25.6875 6.5 25C6.5 24.3125 5.9375 23.75 5.25 23.75ZM31.5 25C30.1325 25 29 26.1325 29 27.5C29 28.8675 30.1325 30 31.5 30C32.8675 30 34 28.8675 34 27.5C34 26.1325 32.8675 25 31.5 25ZM7.75 26.25C7.0625 26.25 6.5 26.8125 6.5 27.5C6.5 28.1875 7.0625 28.75 7.75 28.75C8.4375 28.75 9 28.1875 9 27.5C9 26.8125 8.4375 26.25 7.75 26.25ZM11.5 26.25C10.8125 26.25 10.25 26.8125 10.25 27.5C10.25 28.1875 10.8125 28.75 11.5 28.75C12.1875 28.75 12.75 28.1875 12.75 27.5C12.75 26.8125 12.1875 26.25 11.5 26.25ZM15.25 26.25C14.5625 26.25 14 26.8125 14 27.5C14 28.1875 14.5625 28.75 15.25 28.75C15.9375 28.75 16.5 28.1875 16.5 27.5C16.5 26.8125 15.9375 26.25 15.25 26.25ZM19 26.25C18.3125 26.25 17.75 26.8125 17.75 27.5C17.75 28.1875 18.3125 28.75 19 28.75C19.6875 28.75 20.25 28.1875 20.25 27.5C20.25 26.8125 19.6875 26.25 19 26.25ZM22.75 26.25C22.0625 26.25 21.5 26.8125 21.5 27.5C21.5 28.1875 22.0625 28.75 22.75 28.75C23.4375 28.75 24 28.1875 24 27.5C24 26.8125 23.4375 26.25 22.75 26.25ZM26.5 26.25C25.8125 26.25 25.25 26.8125 25.25 27.5C25.25 28.1875 25.8125 28.75 26.5 28.75C27.1875 28.75 27.75 28.1875 27.75 27.5C27.75 26.8125 27.1875 26.25 26.5 26.25Z" fill="#FE8D08"/>
</svg>
