<svg width="41" height="33" viewBox="0 0 41 33" fill="none" xmlns="http://www.w3.org/2000/svg">
<path d="M14.2646 4.12499C16.2805 3.89124 18.4159 5.66499 19.0309 8.11249C19.6459 10.5462 18.5355 12.7187 16.5196 12.9662C14.5209 13.2137 12.3684 11.44 11.7363 8.99249C11.1042 6.55874 12.2488 4.38624 14.2646 4.12499ZM26.4792 4.12499C28.5121 4.38624 29.6396 6.55874 29.0417 8.99249C28.3925 11.44 26.2571 13.2137 24.2413 12.9662C22.2084 12.7187 21.098 10.5462 21.73 8.11249C22.345 5.66499 24.4805 3.89124 26.4792 4.12499ZM5.12504 10.45C7.07254 9.77624 9.72046 11 11.1042 13.1312C12.4025 15.3037 11.9584 17.5862 10.028 18.26C8.09754 18.9337 5.46671 17.7237 4.11713 15.565C2.76754 13.4062 3.24588 11.11 5.12504 10.45ZM35.875 10.45C37.7542 11.11 38.2325 13.4062 36.883 15.565C35.5334 17.7237 32.9025 18.9337 30.9721 18.26C29.0417 17.5862 28.5975 15.3037 29.8959 13.1312C31.2796 11 33.9275 9.77624 35.875 10.45ZM33.0221 25.2725C33.0905 26.565 31.8605 27.995 30.3913 28.5312C27.3334 29.6587 23.7117 27.3212 20.3121 27.3212C16.9125 27.3212 13.2567 29.755 10.25 28.5312C8.54171 27.8575 7.36296 26.07 7.58504 24.585C7.89254 22.5362 10.9505 21.4362 12.7613 19.9375C15.17 17.9987 16.8784 14.355 20.3121 14.355C23.7288 14.355 25.5396 17.9437 27.8459 19.9375C29.7421 21.615 32.9025 23.0312 33.0221 25.2725Z" fill="black" fill-opacity="0.36"/>
</svg>
