<svg width="37" height="32" viewBox="0 0 37 32" fill="none" xmlns="http://www.w3.org/2000/svg">
<path d="M13.875 6.66667C15.5105 6.66667 17.079 7.22857 18.2355 8.22877C19.3919 9.22896 20.0416 10.5855 20.0416 12C20.0416 13.4145 19.3919 14.771 18.2355 15.7712C17.079 16.7714 15.5105 17.3333 13.875 17.3333C12.2395 17.3333 10.6709 16.7714 9.51447 15.7712C8.35799 14.771 7.70829 13.4145 7.70829 12C7.70829 10.5855 8.35799 9.22896 9.51447 8.22877C10.6709 7.22857 12.2395 6.66667 13.875 6.66667ZM13.875 20C17.9912 20 26.2083 21.7867 26.2083 25.3333V28H1.54163V25.3333C1.54163 21.7867 9.75871 20 13.875 20ZM25.8383 7.14667C28.9525 10.08 28.9525 14.1467 25.8383 16.84L23.2483 14.5867C24.5433 13.0133 24.5433 10.9733 23.2483 9.40001L25.8383 7.14667ZM30.9412 2.66667C37 8.06667 36.9537 16.1467 30.9412 21.3333L28.4283 19.16C32.6987 14.92 32.6987 8.86667 28.4283 4.84001L30.9412 2.66667Z" fill="black" fill-opacity="0.42"/>
</svg>
