<svg width="40" height="32" viewBox="0 0 40 32" fill="none" xmlns="http://www.w3.org/2000/svg">
<path fill-rule="evenodd" clip-rule="evenodd" d="M12.3333 7.73333C13.42 6.57417 14.8292 5.63334 16.4492 4.98535C18.0692 4.33735 19.8555 4 21.6667 4H30C31.3261 4 32.5979 4.42143 33.5355 5.17157C34.4732 5.92172 35 6.93913 35 8V25.3333C35 26.0406 34.6488 26.7189 34.0237 27.219C33.3986 27.719 32.5507 28 31.6667 28H8.33333C7.44928 28 6.60143 27.719 5.97631 27.219C5.35119 26.7189 5 26.0406 5 25.3333V17.7773C5 16.3349 5.58482 14.9313 6.66667 13.7773L12.3333 7.73333ZM21.6667 6.66667C20.373 6.66667 19.097 6.90763 17.9399 7.37049C16.7828 7.83334 15.7762 8.50536 15 9.33333L10 14.6667H31.6667V8C31.6667 7.64638 31.4911 7.30724 31.1785 7.05719C30.866 6.80714 30.442 6.66667 30 6.66667H21.6667ZM25 18.6667C24.558 18.6667 24.134 18.8071 23.8215 19.0572C23.5089 19.3072 23.3333 19.6464 23.3333 20C23.3333 20.3536 23.5089 20.6928 23.8215 20.9428C24.134 21.1929 24.558 21.3333 25 21.3333H26.6667C27.1087 21.3333 27.5326 21.1929 27.8452 20.9428C28.1577 20.6928 28.3333 20.3536 28.3333 20C28.3333 19.6464 28.1577 19.3072 27.8452 19.0572C27.5326 18.8071 27.1087 18.6667 26.6667 18.6667H25Z" fill="black" fill-opacity="0.49"/>
</svg>
