<svg width="34" height="27" viewBox="0 0 34 27" fill="none" xmlns="http://www.w3.org/2000/svg">
<path fill-rule="evenodd" clip-rule="evenodd" d="M29.903 0.324006C29.7473 0.422983 29.6176 0.545363 29.5215 0.684148C29.4254 0.822933 29.3647 0.975403 29.3428 1.13284C29.3209 1.29028 29.3383 1.4496 29.394 1.60169C29.4497 1.75378 29.5426 1.89566 29.6674 2.01922C30.6729 3.01629 30.804 3.72022 30.7117 4.27565C30.6073 4.93136 30.1726 5.56779 29.5339 6.45493L29.478 6.53208C28.9097 7.32279 28.1714 8.34493 27.9796 9.51943C27.7683 10.8328 28.2419 12.177 29.6674 13.5887C29.7893 13.7179 29.9427 13.8264 30.1184 13.9076C30.2941 13.9889 30.4886 14.0413 30.6903 14.0617C30.8919 14.0821 31.0967 14.0701 31.2925 14.0265C31.4882 13.9828 31.6709 13.9084 31.8298 13.8076C31.9886 13.7068 32.1203 13.5817 32.2171 13.4397C32.3138 13.2977 32.3737 13.1417 32.3931 12.981C32.4125 12.8202 32.391 12.6581 32.33 12.5041C32.2689 12.3501 32.1695 12.2074 32.0377 12.0844C31.0323 11.0874 30.9011 10.3815 30.9934 9.82801C31.0979 9.17229 31.5326 8.53586 32.1713 7.64872L32.2247 7.57158C32.7954 6.78086 33.5337 5.75872 33.7231 4.58229C33.9369 3.27086 33.4609 1.92665 32.0377 0.513006C31.9133 0.389202 31.7593 0.286095 31.5846 0.209583C31.4099 0.13307 31.218 0.0846528 31.0197 0.0670994C30.8214 0.049546 30.6208 0.0632008 30.4291 0.107283C30.2375 0.151365 30.0587 0.22501 29.903 0.324006ZM23.4187 0.324006C23.263 0.422983 23.1334 0.545363 23.0372 0.684148C22.9411 0.822933 22.8804 0.975403 22.8585 1.13284C22.8366 1.29028 22.854 1.4496 22.9097 1.60169C22.9654 1.75378 23.0583 1.89566 23.1831 2.01922C24.1886 3.01629 24.3197 3.72022 24.2274 4.27565C24.123 4.93136 23.6883 5.56779 23.0496 6.45493L22.9937 6.53208C22.4254 7.32279 21.6871 8.34493 21.4977 9.51943C21.284 10.8328 21.76 12.177 23.1831 13.5887C23.3051 13.7179 23.4584 13.8264 23.6341 13.9076C23.8098 13.9889 24.0043 14.0413 24.206 14.0617C24.4077 14.0821 24.6124 14.0701 24.8082 14.0265C25.0039 13.9828 25.1867 13.9084 25.3455 13.8076C25.5043 13.7068 25.636 13.5817 25.7328 13.4397C25.8296 13.2977 25.8894 13.1417 25.9088 12.981C25.9282 12.8202 25.9067 12.6581 25.8457 12.5041C25.7846 12.3501 25.6853 12.2074 25.5534 12.0844C24.548 11.0874 24.4169 10.3815 24.5091 9.82801C24.6136 9.17229 25.0483 8.53586 25.687 7.64872L25.7429 7.57158C26.3111 6.78086 27.0494 5.75872 27.2389 4.58229C27.4526 3.27086 26.9766 1.92665 25.5534 0.513006C25.3021 0.263534 24.9364 0.103496 24.5365 0.0680569C24.1367 0.0326178 23.7355 0.124677 23.4211 0.324006H23.4187ZM32.7857 17.1161H28.2321V26.7589H32.7857C33.1078 26.7589 33.4166 26.6573 33.6443 26.4765C33.8721 26.2957 34 26.0504 34 25.7946V18.0804C34 17.8246 33.8721 17.5793 33.6443 17.3985C33.4166 17.2177 33.1078 17.1161 32.7857 17.1161ZM3.64286 26.7589H25.1964V17.1161H3.64286C2.67671 17.1161 1.75014 17.4209 1.06697 17.9634C0.3838 18.5059 0 19.2417 0 20.0089L0 23.8661C0 24.6333 0.3838 25.3691 1.06697 25.9116C1.75014 26.4542 2.67671 26.7589 3.64286 26.7589Z" fill="black" fill-opacity="0.39"/>
</svg>
